<svg width="150" height="152" viewBox="0 0 150 152" fill="none" xmlns="http://www.w3.org/2000/svg">
<ellipse cx="75" cy="76.0001" rx="75" ry="75.0475" fill="#D1FDFB"/>
<path fill-rule="evenodd" clip-rule="evenodd" d="M71.6313 1.02687C31.7733 2.78982 0 35.682 0 76C0 112.964 26.7064 143.686 61.8647 149.9L61.8647 83.6598L30.236 103.021C28.8079 103.895 26.9419 103.446 26.0682 102.017C25.1946 100.588 25.6441 98.7205 27.0722 97.8463L67.9287 72.836V79.9477L67.9264 79.9491V150.718C69.153 150.833 70.3882 150.918 71.6313 150.973V64.2004L35.9825 86.0227C34.5544 86.8969 32.6885 86.4471 31.8148 85.0181C30.9412 83.5891 31.3906 81.722 32.8187 80.8478L71.6313 57.0887V51.3945L41.7288 69.6992C40.3007 70.5735 38.4347 70.1237 37.5611 68.6947C36.6874 67.2657 37.1369 65.3986 38.565 64.5243L71.6313 44.2829V38.5864L47.4751 53.3736C46.047 54.2478 44.181 53.7981 43.3074 52.3691C42.4337 50.9401 42.8832 49.0729 44.3113 48.1987L71.6313 31.4748V25.7801L53.2213 37.0497C51.7932 37.9239 49.9273 37.4742 49.0536 36.0451C48.18 34.6161 48.6294 32.749 50.0575 31.8748L71.6313 18.6685V12.9735L58.9676 20.7255C57.5395 21.5998 55.6735 21.15 54.7999 19.721C53.9262 18.292 54.3757 16.4248 55.8038 15.5506L71.6313 5.86186V1.02687ZM77.693 151C78.9367 150.956 80.1726 150.882 81.4002 150.778L81.4001 79.5369L81.3917 79.5318V72.4201L122.928 97.8462C124.356 98.7204 124.805 100.588 123.931 102.017C123.058 103.446 121.192 103.895 119.764 103.021L87.4619 83.2476V150.016C122.952 144.077 150 113.199 150 76C150 35.4545 117.867 2.41876 77.693 1L77.693 151ZM81.3917 7.71172V14.8234L91.0326 20.7251C92.4607 21.5993 94.3267 21.1495 95.2004 19.7205C96.074 18.2915 95.6245 16.4244 94.1964 15.5501L81.3917 7.71172ZM81.3917 27.6307V20.5191L99.9427 31.875C101.371 32.7493 101.82 34.6164 100.947 36.0454C100.073 37.4744 98.207 37.9242 96.7789 37.05L81.3917 27.6307ZM81.3917 40.437L81.3917 33.3254L105.689 48.199C107.117 49.0732 107.567 50.9403 106.693 52.3693C105.819 53.7983 103.953 54.2481 102.525 53.3739L81.3917 40.437ZM81.3917 53.2451V46.1335L111.435 64.5246C112.863 65.3988 113.313 67.2659 112.439 68.695C111.565 70.124 109.7 70.5737 108.271 69.6995L81.3917 53.2451ZM81.3917 66.0515V58.9398L117.182 80.8485C118.61 81.7227 119.059 83.5899 118.185 85.0189C117.312 86.4479 115.446 86.8976 114.018 86.0234L81.3917 66.0515Z" fill="#FF006A"/>
</svg>
