<svg width="516" height="73" viewBox="0 0 516 73" fill="none" xmlns="http://www.w3.org/2000/svg">
<path d="M114.215 19.8711C121.115 19.8711 125.615 23.2711 125.615 28.6211C125.615 33.2211 122.815 35.5711 120.065 36.7711C124.215 38.0211 127.565 40.4211 127.565 45.2711C127.565 51.3211 122.515 54.8711 114.865 54.8711H99.3152V19.8711H114.215ZM113.565 35.4711C118.315 35.4711 121.615 33.3211 121.615 29.1711C121.615 25.6711 118.865 23.4211 113.865 23.4211H103.215V35.4711H113.565ZM114.965 51.3211C120.265 51.3211 123.565 48.9711 123.565 45.0211C123.565 41.1711 120.365 38.9711 114.265 38.9711H103.215V51.3211H114.965ZM135.749 19.8711H139.699V54.8711H135.749V19.8711ZM180.25 50.1211C177 53.0211 172.1 55.4711 166.2 55.4711C155.2 55.4711 148.4 47.4711 148.4 37.4211C148.4 27.7711 155.45 19.2711 165.95 19.2711C171.85 19.2711 175.5 20.9711 179 23.9211L176.45 26.9211C173.75 24.5711 170.75 22.9211 165.8 22.9211C158.05 22.9211 152.5 29.4711 152.5 37.3211C152.5 45.7211 157.85 51.9211 166.35 51.9211C170.35 51.9211 174.05 50.3711 176.45 48.4211V39.7211H165.8V36.1711H180.25V50.1211ZM219.049 19.8711C225.949 19.8711 230.449 23.2711 230.449 28.6211C230.449 33.2211 227.649 35.5711 224.899 36.7711C229.049 38.0211 232.399 40.4211 232.399 45.2711C232.399 51.3211 227.349 54.8711 219.699 54.8711H204.149V19.8711H219.049ZM218.399 35.4711C223.149 35.4711 226.449 33.3211 226.449 29.1711C226.449 25.6711 223.699 23.4211 218.699 23.4211H208.049V35.4711H218.399ZM219.799 51.3211C225.099 51.3211 228.399 48.9711 228.399 45.0211C228.399 41.1711 225.199 38.9711 219.099 38.9711H208.049V51.3211H219.799ZM256.883 19.6211L272.833 54.8711H268.583L264.483 45.6211H245.433L241.283 54.8711H237.233L253.183 19.6211H256.883ZM262.933 42.0711L254.983 24.2211L246.983 42.0711H262.933ZM282.297 28.6211C282.297 31.9711 284.097 33.8211 291.797 35.4711C299.597 37.1711 303.197 40.0211 303.197 45.4211C303.197 51.4711 298.197 55.3711 291.247 55.3711C285.697 55.3711 281.147 53.5211 276.947 49.7711L279.397 46.8711C283.047 50.1711 286.547 51.8211 291.397 51.8211C296.097 51.8211 299.197 49.3711 299.197 45.8211C299.197 42.5211 297.447 40.6711 290.097 39.1211C282.047 37.3711 278.347 34.7711 278.347 28.9711C278.347 23.3711 283.197 19.3711 289.847 19.3711C294.947 19.3711 298.597 20.8211 302.147 23.6711L299.847 26.7211C296.597 24.0711 293.347 22.9211 289.747 22.9211C285.197 22.9211 282.297 25.4211 282.297 28.6211ZM311.579 19.8711H315.529V54.8711H311.579V19.8711ZM351.53 47.9211V19.8711H355.38V54.8711H352.23L329.63 26.1711V54.8711H325.78V19.8711H329.48L351.53 47.9211ZM380.272 54.8711V19.8711H384.222V51.2211H403.922V54.8711H380.272ZM427.879 19.6211L443.829 54.8711H439.579L435.479 45.6211H416.429L412.279 54.8711H408.229L424.179 19.6211H427.879ZM433.929 42.0711L425.979 24.2211L417.979 42.0711H433.929ZM465.631 19.8711C472.531 19.8711 477.031 23.2711 477.031 28.6211C477.031 33.2211 474.231 35.5711 471.481 36.7711C475.631 38.0211 478.981 40.4211 478.981 45.2711C478.981 51.3211 473.931 54.8711 466.281 54.8711H450.731V19.8711H465.631ZM464.981 35.4711C469.731 35.4711 473.031 33.3211 473.031 29.1711C473.031 25.6711 470.281 23.4211 465.281 23.4211H454.631V35.4711H464.981ZM466.381 51.3211C471.681 51.3211 474.981 48.9711 474.981 45.0211C474.981 41.1711 471.781 38.9711 465.681 38.9711H454.631V51.3211H466.381ZM489.865 28.6211C489.865 31.9711 491.665 33.8211 499.365 35.4711C507.165 37.1711 510.765 40.0211 510.765 45.4211C510.765 51.4711 505.765 55.3711 498.815 55.3711C493.265 55.3711 488.715 53.5211 484.515 49.7711L486.965 46.8711C490.615 50.1711 494.115 51.8211 498.965 51.8211C503.665 51.8211 506.765 49.3711 506.765 45.8211C506.765 42.5211 505.015 40.6711 497.665 39.1211C489.615 37.3711 485.915 34.7711 485.915 28.9711C485.915 23.3711 490.765 19.3711 497.415 19.3711C502.515 19.3711 506.165 20.8211 509.715 23.6711L507.415 26.7211C504.165 24.0711 500.915 22.9211 497.315 22.9211C492.765 22.9211 489.865 25.4211 489.865 28.6211Z" fill="black"/>
<path fill-rule="evenodd" clip-rule="evenodd" d="M34.8555 0.0130494C15.4607 0.87033 0 16.8654 0 36.4715C0 54.4465 12.9952 69.3863 30.1031 72.4083L30.1031 40.1964L14.7128 49.6115C14.0178 50.0367 13.1099 49.818 12.6848 49.123C12.2596 48.4281 12.4784 47.5202 13.1733 47.0951L33.0537 34.933V38.3913L33.0531 38.3916V72.806C33.6498 72.8618 34.2507 72.9033 34.8555 72.93L34.8555 30.7336L17.5089 41.3455C16.814 41.7706 15.906 41.5519 15.4809 40.857C15.0558 40.1621 15.2745 39.2541 15.9694 38.829L34.8555 27.2753V24.5062L20.305 33.4076C19.6101 33.8327 18.7022 33.614 18.277 32.9191C17.8519 32.2241 18.0706 31.3162 18.7655 30.8911L34.8555 21.0479V18.2778L23.1011 25.4686C22.4062 25.8938 21.4983 25.6751 21.0731 24.9801C20.648 24.2852 20.8667 23.3773 21.5616 22.9521L34.8555 14.8195V12.0502L25.8972 17.5305C25.2023 17.9556 24.2944 17.7369 23.8692 17.042C23.4441 16.3471 23.6628 15.4391 24.3577 15.014L34.8555 8.59188V5.82254L28.6933 9.59228C27.9984 10.0174 27.0905 9.7987 26.6653 9.10378C26.2402 8.40887 26.4589 7.50091 27.1538 7.07579L34.8555 2.36424V0.0130494ZM37.8055 72.9431C38.4105 72.9217 39.0117 72.8856 39.6088 72.8351L39.6088 38.1914L39.6051 38.1891V34.7308L59.816 47.095C60.5109 47.5201 60.7296 48.4281 60.3045 49.123C59.8793 49.8179 58.9714 50.0366 58.2765 49.6115L42.5588 39.9961L42.5589 72.4646C59.828 69.5764 72.9893 54.5609 72.9893 36.4715C72.9893 16.7549 57.3538 0.690162 37.8055 0L37.8055 72.9431ZM39.6051 3.26396V6.72226L44.296 9.59202C44.9909 10.0171 45.8989 9.79843 46.324 9.10352C46.7491 8.40861 46.5304 7.50064 45.8355 7.07552L39.6051 3.26396ZM39.6051 12.9503V9.49199L48.6316 15.0141C49.3265 15.4392 49.5453 16.3472 49.1201 17.0421C48.695 17.737 47.7871 17.9557 47.0921 17.5306L39.6051 12.9503ZM39.6051 19.1778V15.7195L51.4277 22.9522C52.1226 23.3773 52.3414 24.2853 51.9162 24.9802C51.4911 25.6751 50.5832 25.8938 49.8882 25.4687L39.6051 19.1778ZM39.6051 25.4063V21.948L54.2238 30.8912C54.9188 31.3164 55.1375 32.2243 54.7123 32.9192C54.2872 33.6141 53.3793 33.8329 52.6843 33.4077L39.6051 25.4063ZM39.6051 31.6339V28.1756L57.0199 38.8293C57.7149 39.2544 57.9336 40.1624 57.5084 40.8573C57.0833 41.5522 56.1754 41.7709 55.4805 41.3458L39.6051 31.6339Z" fill="#FF006A"/>
</svg>
